<?xml version="1.0" encoding="UTF-8" standalone="no"?>
<!DOCTYPE svg PUBLIC "-//W3C//DTD SVG 1.1//EN" "http://www.w3.org/Graphics/SVG/1.1/DTD/svg11.dtd">
<svg width="100%" height="100%" viewBox="0 0 1080 1080" version="1.1" xmlns="http://www.w3.org/2000/svg" xmlns:xlink="http://www.w3.org/1999/xlink" xml:space="preserve" xmlns:serif="http://www.serif.com/" style="fill-rule:evenodd;clip-rule:evenodd;stroke-linejoin:round;stroke-miterlimit:2;">
    <g id="aryth-logo">
        <g transform="matrix(0.997716,0,0,1,-9.29185e-16,0)">
            <path d="M7.026,997.026C2.527,992.527 -0,986.431 -0,980.075C-0,961.734 -0,921.866 -0,894C-0,877.431 13.462,864 30.069,864L159.675,864C159.675,864 664.809,180.279 776.368,29.279C789.971,10.868 811.532,0 834.457,-0C879.476,-0 953.364,-0 980.02,-0C986.409,-0 992.536,2.536 997.049,7.049C1013.93,23.93 1056.51,66.509 1073.17,83.168C1077.55,87.552 1080.07,93.457 1080.19,99.649C1080.54,117.737 1081.32,157.435 1081.87,185.413C1082.03,193.47 1078.93,201.251 1073.28,207.005C1067.62,212.758 1059.89,216 1051.81,216L920.599,216C920.599,216 415.222,899.756 303.632,1050.73C290.029,1069.14 268.472,1080 245.552,1080L99.98,1080C93.591,1080 87.464,1077.46 82.951,1072.95C66.135,1056.13 23.819,1013.82 7.026,997.026Z" style="fill:rgb(50,162,153);"/>
        </g>
        <g transform="matrix(1.06959,0,0,0.957296,-75.1539,46.1208)">
            <path d="M680.388,970.131C680.388,960.074 683.275,950.282 688.624,942.194C729.283,880.721 908.605,609.604 957.962,534.981C965.894,522.987 978.45,515.911 991.797,515.911C1004.89,515.911 1022.15,515.911 1037.93,515.911C1049.09,515.911 1059.79,520.863 1067.68,529.679C1075.57,538.495 1080,550.451 1080,562.918L1080,975.601C1080,982.25 1077.64,988.627 1073.43,993.328C1057.72,1010.88 1018.14,1055.11 1002.43,1072.66C998.219,1077.36 992.512,1080 986.561,1080C947.714,1080 796.916,1080 722.46,1080C699.224,1080 680.388,1058.95 680.388,1032.99L680.388,970.131Z" style="fill:rgb(67,179,165);"/>
        </g>
        <g transform="matrix(-1.06959,-1.30987e-16,1.17235e-16,-0.957296,1155.15,1033.88)">
            <path d="M680.388,970.131C680.388,960.074 683.275,950.282 688.624,942.194C729.283,880.721 908.605,609.604 957.962,534.981C965.894,522.987 978.45,515.911 991.797,515.911C1004.89,515.911 1022.15,515.911 1037.93,515.911C1049.09,515.911 1059.79,520.863 1067.68,529.679C1075.57,538.495 1080,550.451 1080,562.918L1080,975.601C1080,982.25 1077.64,988.627 1073.43,993.328C1057.72,1010.88 1018.14,1055.11 1002.43,1072.66C998.219,1077.36 992.512,1080 986.561,1080C947.714,1080 796.916,1080 722.46,1080C699.224,1080 680.388,1058.95 680.388,1032.99L680.388,970.131Z" style="fill:rgb(102,197,179);"/>
        </g>
    </g>
</svg>
