<?xml version="1.0" encoding="UTF-8" standalone="no"?>
<!DOCTYPE svg PUBLIC "-//W3C//DTD SVG 1.1//EN" "http://www.w3.org/Graphics/SVG/1.1/DTD/svg11.dtd">
<svg width="100%" height="100%" viewBox="0 0 1296 432" version="1.1" xmlns="http://www.w3.org/2000/svg" xmlns:xlink="http://www.w3.org/1999/xlink" xml:space="preserve" xmlns:serif="http://www.serif.com/" style="fill-rule:evenodd;clip-rule:evenodd;stroke-linejoin:round;stroke-miterlimit:2;">
    <g transform="matrix(1,0,0,1,73.1342,-5.62277)">
        <g transform="matrix(50,0,0,50,522.863,307.394)">
            <path d="M0.487,-0.095C0.548,-0.112 0.636,-0.129 0.734,-0.144C0.731,-0.1 0.73,-0.058 0.73,-0.017C0.73,-0.002 0.731,0.013 0.731,0.027C0.736,0.044 0.75,0.053 0.768,0.053C0.777,0.053 0.793,0.047 0.796,0.032C0.796,0.021 0.795,-0.002 0.795,-0.035C0.795,-0.066 0.795,-0.107 0.798,-0.152C0.941,-0.171 1.099,-0.184 1.228,-0.186C1.236,-0.194 1.24,-0.205 1.24,-0.214C1.24,-0.226 1.233,-0.237 1.221,-0.241C1.077,-0.235 0.93,-0.22 0.801,-0.203C0.813,-0.362 0.846,-0.568 0.935,-0.714C0.936,-0.718 0.937,-0.724 0.937,-0.729C0.937,-0.745 0.93,-0.767 0.913,-0.767C0.903,-0.767 0.89,-0.761 0.877,-0.752C0.612,-0.571 0.306,-0.306 0.11,-0.035C0.108,-0.03 0.107,-0.026 0.107,-0.021C0.107,-0.003 0.12,0.012 0.145,0.012C0.152,0.012 0.165,0.011 0.174,0.002C0.327,-0.239 0.612,-0.506 0.858,-0.673C0.793,-0.535 0.754,-0.361 0.738,-0.194C0.632,-0.179 0.541,-0.163 0.48,-0.152C0.468,-0.144 0.461,-0.133 0.461,-0.123C0.461,-0.111 0.47,-0.1 0.487,-0.095Z" style="fill:rgb(47,179,165);fill-rule:nonzero;"/>
        </g>
        <g transform="matrix(50,0,0,50,576.413,307.394)">
            <path d="M0.143,-0.214C0.192,-0.173 0.277,-0.164 0.32,-0.158C0.311,-0.114 0.296,-0.073 0.296,-0.031C0.296,0.027 0.339,0.056 0.408,0.056C0.543,0.056 0.751,-0.085 0.904,-0.193C0.908,-0.2 0.908,-0.207 0.908,-0.213C0.907,-0.232 0.89,-0.241 0.871,-0.241C0.766,-0.143 0.54,0.009 0.409,0.009C0.38,0.009 0.355,-0.006 0.359,-0.043C0.365,-0.095 0.387,-0.154 0.401,-0.206C0.348,-0.213 0.227,-0.226 0.173,-0.269C0.149,-0.264 0.139,-0.244 0.139,-0.229C0.139,-0.223 0.14,-0.217 0.143,-0.214Z" style="fill:rgb(47,179,165);fill-rule:nonzero;"/>
        </g>
        <g transform="matrix(50,0,0,50,612.463,307.394)">
            <path d="M0.15,-0.241C0.121,-0.194 0.111,-0.149 0.111,-0.104C0.112,-0.012 0.178,0.034 0.279,0.034C0.459,0.034 0.701,-0.083 0.872,-0.19C0.875,-0.195 0.877,-0.201 0.877,-0.208C0.877,-0.225 0.865,-0.243 0.838,-0.241C0.676,-0.129 0.464,-0.016 0.286,-0.016C0.206,-0.016 0.174,-0.048 0.174,-0.105C0.174,-0.139 0.193,-0.184 0.212,-0.208C0.214,-0.222 0.201,-0.249 0.178,-0.249C0.167,-0.249 0.16,-0.246 0.15,-0.241ZM0.365,-0.572C0.365,-0.563 0.366,-0.555 0.367,-0.546C0.355,-0.513 0.344,-0.497 0.318,-0.459C0.318,-0.438 0.325,-0.429 0.34,-0.429C0.344,-0.429 0.349,-0.43 0.354,-0.433C0.388,-0.476 0.425,-0.535 0.448,-0.581C0.448,-0.598 0.44,-0.625 0.417,-0.627C0.386,-0.624 0.365,-0.604 0.365,-0.572Z" style="fill:rgb(47,179,165);fill-rule:nonzero;"/>
        </g>
        <g transform="matrix(50,0,0,50,646.863,307.394)">
            <path d="M0.109,-0.306C0.152,-0.318 0.193,-0.328 0.235,-0.338C0.205,-0.304 0.173,-0.268 0.139,-0.228C0.139,-0.207 0.149,-0.189 0.177,-0.186C0.21,-0.231 0.245,-0.275 0.279,-0.318C0.257,-0.241 0.246,-0.168 0.246,-0.105C0.246,-0.011 0.303,0.031 0.391,0.031C0.564,0.031 0.815,-0.113 0.947,-0.191C0.951,-0.197 0.952,-0.203 0.952,-0.209C0.951,-0.227 0.934,-0.243 0.915,-0.241C0.783,-0.15 0.56,-0.017 0.393,-0.017C0.335,-0.017 0.299,-0.041 0.299,-0.106C0.299,-0.177 0.31,-0.266 0.341,-0.361C0.459,-0.384 0.587,-0.4 0.758,-0.415C0.765,-0.421 0.767,-0.43 0.767,-0.439C0.767,-0.452 0.762,-0.464 0.753,-0.469C0.582,-0.451 0.469,-0.434 0.361,-0.414L0.368,-0.431C0.416,-0.494 0.453,-0.552 0.467,-0.603C0.46,-0.61 0.449,-0.614 0.435,-0.614C0.43,-0.614 0.421,-0.613 0.413,-0.61C0.378,-0.558 0.348,-0.501 0.323,-0.443C0.312,-0.428 0.3,-0.414 0.288,-0.399L0.097,-0.36C0.091,-0.354 0.089,-0.346 0.089,-0.338C0.089,-0.325 0.096,-0.312 0.109,-0.306Z" style="fill:rgb(47,179,165);fill-rule:nonzero;"/>
        </g>
        <g transform="matrix(50,0,0,50,685.113,307.394)">
            <path d="M0.435,-0.822C0.409,-0.644 0.342,-0.459 0.226,-0.303C0.297,-0.509 0.377,-0.705 0.435,-0.822ZM0.487,-0.842C0.483,-0.867 0.46,-0.881 0.434,-0.881C0.427,-0.881 0.419,-0.88 0.412,-0.878C0.277,-0.673 0.137,-0.19 0.068,0.003C0.064,0.029 0.088,0.054 0.122,0.052C0.176,0.003 0.405,-0.187 0.481,-0.187C0.499,-0.187 0.51,-0.177 0.521,-0.158C0.551,-0.103 0.57,-0.073 0.584,-0.055C0.631,0.007 0.683,0.015 0.745,0.015C0.843,0.015 1.056,-0.089 1.213,-0.194C1.215,-0.2 1.216,-0.205 1.216,-0.211C1.216,-0.227 1.205,-0.241 1.18,-0.241C1.023,-0.128 0.843,-0.037 0.741,-0.037C0.622,-0.037 0.597,-0.154 0.54,-0.25C0.529,-0.255 0.518,-0.258 0.507,-0.258C0.485,-0.258 0.466,-0.247 0.446,-0.239C0.326,-0.184 0.235,-0.101 0.137,-0.021C0.153,-0.076 0.17,-0.133 0.189,-0.191C0.387,-0.397 0.482,-0.678 0.487,-0.842Z" style="fill:rgb(47,179,165);fill-rule:nonzero;"/>
        </g>
        <g transform="matrix(50,0,0,50,736.613,307.394)">
            <path d="M0.23,-0.276C0.231,-0.293 0.223,-0.317 0.199,-0.317C0.191,-0.317 0.182,-0.315 0.171,-0.311C0.138,-0.2 0.114,-0.14 0.053,-0.004C0.053,0.032 0.077,0.048 0.109,0.048C0.115,0.048 0.118,0.048 0.126,0.047C0.163,0.005 0.376,-0.224 0.433,-0.224C0.448,-0.224 0.458,-0.212 0.466,-0.186C0.483,-0.129 0.49,-0.1 0.501,-0.059C0.515,-0.008 0.545,0.012 0.579,0.012C0.611,0.012 0.646,-0.006 0.673,-0.032C0.713,-0.072 0.759,-0.125 0.814,-0.192C0.854,-0.102 0.916,-0.011 1.026,-0.011C1.168,-0.011 1.321,-0.114 1.453,-0.191C1.456,-0.196 1.457,-0.202 1.457,-0.208C1.457,-0.224 1.445,-0.241 1.423,-0.241C1.304,-0.162 1.165,-0.065 1.042,-0.063C0.98,-0.062 0.957,-0.081 0.932,-0.106C0.905,-0.133 0.882,-0.183 0.865,-0.23C0.855,-0.242 0.834,-0.258 0.803,-0.257C0.747,-0.191 0.699,-0.134 0.639,-0.078C0.62,-0.06 0.6,-0.045 0.584,-0.045C0.573,-0.045 0.563,-0.053 0.557,-0.073C0.542,-0.118 0.522,-0.226 0.502,-0.265C0.492,-0.282 0.47,-0.297 0.437,-0.297C0.316,-0.238 0.239,-0.136 0.108,-0.011C0.159,-0.121 0.207,-0.21 0.23,-0.276Z" style="fill:rgb(47,179,165);fill-rule:nonzero;"/>
        </g>
        <g transform="matrix(50,0,0,50,800.263,307.394)">
            <path d="M0.185,0.02C0.345,0.02 0.591,-0.082 0.727,-0.197C0.73,-0.202 0.731,-0.208 0.731,-0.213C0.731,-0.228 0.721,-0.242 0.695,-0.241C0.558,-0.12 0.345,-0.03 0.187,-0.03C0.104,-0.03 0.045,-0.062 0.038,-0.124C0.132,-0.168 0.163,-0.182 0.187,-0.198C0.191,-0.207 0.192,-0.216 0.192,-0.223C0.192,-0.245 0.168,-0.261 0.14,-0.261C0.065,-0.261 -0.012,-0.192 -0.012,-0.116C-0.012,-0.053 0.044,0.02 0.185,0.02Z" style="fill:rgb(47,179,165);fill-rule:nonzero;"/>
        </g>
        <g transform="matrix(50,0,0,50,827.513,307.394)">
            <path d="M0.109,-0.306C0.152,-0.318 0.193,-0.328 0.235,-0.338C0.205,-0.304 0.173,-0.268 0.139,-0.228C0.139,-0.207 0.149,-0.189 0.177,-0.186C0.21,-0.231 0.245,-0.275 0.279,-0.318C0.257,-0.241 0.246,-0.168 0.246,-0.105C0.246,-0.011 0.303,0.031 0.391,0.031C0.564,0.031 0.815,-0.113 0.947,-0.191C0.951,-0.197 0.952,-0.203 0.952,-0.209C0.951,-0.227 0.934,-0.243 0.915,-0.241C0.783,-0.15 0.56,-0.017 0.393,-0.017C0.335,-0.017 0.299,-0.041 0.299,-0.106C0.299,-0.177 0.31,-0.266 0.341,-0.361C0.459,-0.384 0.587,-0.4 0.758,-0.415C0.765,-0.421 0.767,-0.43 0.767,-0.439C0.767,-0.452 0.762,-0.464 0.753,-0.469C0.582,-0.451 0.469,-0.434 0.361,-0.414L0.368,-0.431C0.416,-0.494 0.453,-0.552 0.467,-0.603C0.46,-0.61 0.449,-0.614 0.435,-0.614C0.43,-0.614 0.421,-0.613 0.413,-0.61C0.378,-0.558 0.348,-0.501 0.323,-0.443C0.312,-0.428 0.3,-0.414 0.288,-0.399L0.097,-0.36C0.091,-0.354 0.089,-0.346 0.089,-0.338C0.089,-0.325 0.096,-0.312 0.109,-0.306Z" style="fill:rgb(47,179,165);fill-rule:nonzero;"/>
        </g>
        <g transform="matrix(50,0,0,50,865.763,307.394)">
            <path d="M0.15,-0.241C0.121,-0.194 0.111,-0.149 0.111,-0.104C0.112,-0.012 0.178,0.034 0.279,0.034C0.459,0.034 0.701,-0.083 0.872,-0.19C0.875,-0.195 0.877,-0.201 0.877,-0.208C0.877,-0.225 0.865,-0.243 0.838,-0.241C0.676,-0.129 0.464,-0.016 0.286,-0.016C0.206,-0.016 0.174,-0.048 0.174,-0.105C0.174,-0.139 0.193,-0.184 0.212,-0.208C0.214,-0.222 0.201,-0.249 0.178,-0.249C0.167,-0.249 0.16,-0.246 0.15,-0.241ZM0.365,-0.572C0.365,-0.563 0.366,-0.555 0.367,-0.546C0.355,-0.513 0.344,-0.497 0.318,-0.459C0.318,-0.438 0.325,-0.429 0.34,-0.429C0.344,-0.429 0.349,-0.43 0.354,-0.433C0.388,-0.476 0.425,-0.535 0.448,-0.581C0.448,-0.598 0.44,-0.625 0.417,-0.627C0.386,-0.624 0.365,-0.604 0.365,-0.572Z" style="fill:rgb(47,179,165);fill-rule:nonzero;"/>
        </g>
        <g transform="matrix(50,0,0,50,900.163,307.394)">
            <path d="M0.357,-0.218C0.377,-0.221 0.394,-0.235 0.39,-0.257C0.378,-0.286 0.332,-0.304 0.283,-0.304C0.192,-0.304 0.116,-0.235 0.116,-0.149C0.116,-0.051 0.192,0.012 0.319,0.012C0.497,0.012 0.698,-0.086 0.892,-0.189C0.895,-0.194 0.897,-0.201 0.897,-0.207C0.897,-0.225 0.886,-0.238 0.864,-0.241C0.684,-0.13 0.489,-0.034 0.322,-0.034C0.213,-0.034 0.17,-0.087 0.17,-0.146C0.17,-0.189 0.206,-0.251 0.28,-0.251C0.32,-0.251 0.34,-0.236 0.357,-0.218Z" style="fill:rgb(47,179,165);fill-rule:nonzero;"/>
        </g>
    </g>
    <g transform="matrix(0.734183,0,0,0.734183,206.834,69.2925)">
        <g transform="matrix(1,0,0,1,-24,0)">
            <path d="M1096.66,219.818L1126.66,219.818L1126.66,217.418C1123.46,215.618 1121.86,211.418 1121.86,204.818L1121.86,108.018C1121.86,101.418 1123.46,97.218 1126.66,95.418L1126.66,93.018L1096.66,93.018L1096.66,95.418C1099.86,97.218 1101.46,101.418 1101.46,108.018L1101.46,149.618L1027.26,149.618L1027.26,108.018C1027.26,101.418 1028.86,97.218 1032.06,95.418L1032.06,93.018L1002.06,93.018L1002.06,95.418C1005.26,97.218 1006.86,101.418 1006.86,108.018L1006.86,204.818C1006.86,211.418 1005.26,215.618 1002.06,217.418L1002.06,219.818L1032.06,219.818L1032.06,217.418C1028.86,215.618 1027.26,211.418 1027.26,204.818L1027.26,157.618L1101.46,157.618L1101.46,204.818C1101.46,211.418 1099.86,215.618 1096.66,217.418L1096.66,219.818Z" style="fill:rgb(47,179,165);fill-rule:nonzero;"/>
        </g>
        <g transform="matrix(1,0,0,1,-19,0)">
            <path d="M903.663,106.818L906.063,106.818C906.063,106.818 908.663,100.818 919.663,100.818L933.063,100.818L933.063,204.818C933.063,211.418 931.463,215.618 928.263,217.418L928.263,219.818L958.263,219.818L958.263,217.418C955.063,215.618 953.463,211.418 953.463,204.818L953.463,100.818L966.863,100.818C977.863,100.818 980.463,106.818 980.463,106.818L982.863,106.818L982.863,93.018L903.663,93.018L903.663,106.818Z" style="fill:rgb(47,179,165);fill-rule:nonzero;"/>
        </g>
        <g transform="matrix(1,0,0,1,-14,0)">
            <path d="M844.063,219.818L844.063,217.418C840.863,215.618 839.263,211.418 839.263,204.818L839.263,156.818L872.063,109.218C876.463,103.418 882.063,97.018 886.863,95.218L886.863,92.618L863.663,92.618L863.663,95.218C870.863,98.418 865.663,105.018 862.463,109.218L836.263,147.218L810.863,109.618C807.463,104.618 803.863,98.418 809.863,95.618L809.863,93.018L772.663,93.018L772.663,95.618C775.663,96.818 780.863,102.018 786.063,109.618L818.863,157.818L818.863,204.818C818.863,211.418 817.263,215.618 814.063,217.418L814.063,219.818L844.063,219.818Z" style="fill:rgb(47,179,165);fill-rule:nonzero;"/>
        </g>
        <g transform="matrix(1,0,0,1,-5,0)">
            <path d="M687.063,101.018L696.263,101.018C713.863,101.018 734.063,107.018 734.063,130.818C734.063,150.218 718.863,159.418 700.863,159.418L687.063,159.418L687.063,101.018ZM691.863,219.818L691.863,217.418C688.663,215.618 687.063,211.418 687.063,204.818L687.063,167.018L701.463,167.018L731.863,212.618C734.663,216.818 740.463,219.818 746.063,219.818L768.063,219.818L768.063,217.418C762.663,217.418 756.263,212.618 751.663,205.818L723.463,164.818C741.063,161.018 756.863,151.618 756.863,130.818C756.863,111.818 740.063,93.018 703.463,93.018L661.863,93.018L661.863,95.418C665.063,97.218 666.663,101.418 666.663,108.018L666.663,204.818C666.663,211.418 665.063,215.618 661.863,217.418L661.863,219.818L691.863,219.818Z" style="fill:rgb(47,179,165);fill-rule:nonzero;"/>
        </g>
        <path d="M562.063,170.218L582.063,117.818L601.863,170.218L562.063,170.218ZM615.463,206.018C618.063,213.018 614.863,216.018 611.863,217.218L611.863,219.818L646.263,219.818L646.263,217.218C643.463,216.018 640.063,211.618 637.863,206.018L593.463,91.418L583.863,91.418L540.063,206.018C538.463,210.218 534.463,215.418 530.063,217.218L530.063,219.818L552.063,219.818L552.063,217.218C547.663,214.618 546.863,212.018 548.463,206.018L559.263,177.818L604.863,177.818L615.463,206.018Z" style="fill:rgb(47,179,165);fill-rule:nonzero;"/>
    </g>
    <g id="aryth-logo" transform="matrix(0.166667,0,0,0.166667,230,130)">
        <g transform="matrix(0.997716,0,0,1,-9.29185e-16,0)">
            <path d="M7.026,997.026C2.527,992.527 -0,986.431 -0,980.075C-0,961.734 -0,921.866 -0,894C-0,877.431 13.462,864 30.069,864L159.675,864C159.675,864 664.809,180.279 776.368,29.279C789.971,10.868 811.532,0 834.457,-0C879.476,-0 953.364,-0 980.02,-0C986.409,-0 992.536,2.536 997.049,7.049C1013.93,23.93 1056.51,66.509 1073.17,83.168C1077.55,87.552 1080.07,93.457 1080.19,99.649C1080.54,117.737 1081.32,157.435 1081.87,185.413C1082.03,193.47 1078.93,201.251 1073.28,207.005C1067.62,212.758 1059.89,216 1051.81,216L920.599,216C920.599,216 415.222,899.756 303.632,1050.73C290.029,1069.14 268.472,1080 245.552,1080L99.98,1080C93.591,1080 87.464,1077.46 82.951,1072.95C66.135,1056.13 23.819,1013.82 7.026,997.026Z" style="fill:rgb(50,162,153);"/>
        </g>
        <g transform="matrix(1.06959,0,0,0.957296,-75.1539,46.1208)">
            <path d="M680.388,970.131C680.388,960.074 683.275,950.282 688.624,942.194C729.283,880.721 908.605,609.604 957.962,534.981C965.894,522.987 978.45,515.911 991.797,515.911C1004.89,515.911 1022.15,515.911 1037.93,515.911C1049.09,515.911 1059.79,520.863 1067.68,529.679C1075.57,538.495 1080,550.451 1080,562.918L1080,975.601C1080,982.25 1077.64,988.627 1073.43,993.328C1057.72,1010.88 1018.14,1055.11 1002.43,1072.66C998.219,1077.36 992.512,1080 986.561,1080C947.714,1080 796.916,1080 722.46,1080C699.224,1080 680.388,1058.95 680.388,1032.99L680.388,970.131Z" style="fill:rgb(67,179,165);"/>
        </g>
        <g transform="matrix(-1.06959,-1.30987e-16,1.17235e-16,-0.957296,1155.15,1033.88)">
            <path d="M680.388,970.131C680.388,960.074 683.275,950.282 688.624,942.194C729.283,880.721 908.605,609.604 957.962,534.981C965.894,522.987 978.45,515.911 991.797,515.911C1004.89,515.911 1022.15,515.911 1037.93,515.911C1049.09,515.911 1059.79,520.863 1067.68,529.679C1075.57,538.495 1080,550.451 1080,562.918L1080,975.601C1080,982.25 1077.64,988.627 1073.43,993.328C1057.72,1010.88 1018.14,1055.11 1002.43,1072.66C998.219,1077.36 992.512,1080 986.561,1080C947.714,1080 796.916,1080 722.46,1080C699.224,1080 680.388,1058.95 680.388,1032.99L680.388,970.131Z" style="fill:rgb(102,197,179);"/>
        </g>
    </g>
</svg>
