<?xml version="1.0" encoding="UTF-8" standalone="no"?>
<!DOCTYPE svg PUBLIC "-//W3C//DTD SVG 1.1//EN" "http://www.w3.org/Graphics/SVG/1.1/DTD/svg11.dtd">
<svg width="100%" height="100%" viewBox="0 0 108 108" version="1.1" xmlns="http://www.w3.org/2000/svg" xmlns:xlink="http://www.w3.org/1999/xlink" xml:space="preserve" xmlns:serif="http://www.serif.com/" style="fill-rule:evenodd;clip-rule:evenodd;stroke-linejoin:round;stroke-miterlimit:2;">
    <g id="aryth-logo">
        <rect x="0" y="0" width="108" height="108" style="fill:none;"/>
        <g transform="matrix(0.0751829,0,0,0.0751829,-9.15367,-9.15367)">
            <path d="M968.146,1435.36L963.133,1430.57L963.133,1394.07L1378.69,840L1431.02,840L1435.81,844.788L1435.81,958.304C1430.85,1070.78 1420.6,1163.12 1417.2,1179.11C1407.61,1224.36 1386.74,1280.91 1333.83,1333.83C1280.91,1386.74 1224.36,1407.61 1179.11,1417.2C1163.59,1420.5 1076.13,1430.26 968.146,1435.36Z" style="fill:rgb(130,194,199);"/>
        </g>
        <g transform="matrix(0.0751829,0,0,0.0751829,-9.15367,-9.15367)">
            <path d="M262.794,1179.1L265.968,1175.18L409.051,1175.18L1098.6,255.791L1102.86,253.894C1143.1,257.57 1170.98,261.071 1179.11,262.795C1224.36,272.391 1280.91,293.262 1333.83,346.175C1386.74,399.089 1407.61,455.642 1417.21,500.896L1414.03,504.818L1270.95,504.818L581.405,1424.21L577.138,1426.11C536.902,1422.43 509.021,1418.93 500.892,1417.2C455.637,1407.61 399.089,1386.74 346.175,1333.83C293.262,1280.91 272.39,1224.36 262.794,1179.1Z" style="fill:rgb(78,164,186);"/>
        </g>
        <g transform="matrix(0.0751829,0,0,0.0751829,-9.15367,-9.15367)">
            <path d="M246.254,840L241.465,835.204C241.795,676.915 258.31,522.043 262.795,500.892C272.391,455.637 293.262,399.089 346.175,346.175C399.089,293.262 455.637,272.391 500.892,262.795C516.276,259.533 602.394,249.907 709.116,244.773L714.134,249.556L714.134,289.574L301.314,840L246.254,840Z" style="fill:rgb(68,123,140);"/>
        </g>
    </g>
</svg>
